<svg width="847" height="679" viewBox="0 0 847 679" fill="none" xmlns="http://www.w3.org/2000/svg">
<path d="M327.728 460.844C333.798 459.882 337.95 449.696 336.768 442.825C335.816 437.18 332.391 431.469 327.005 426.547L124.312 218.718C348.481 363.15 562.401 516.395 764.62 677.411C769.931 681.656 778.436 671.754 778.451 663.244C778.452 656.547 775.119 649.483 769.042 643.299C730.88 599.829 691.402 558.248 650.608 518.557C628.123 496.512 605.215 475.417 582.272 454.094C437.187 319.163 291.658 183.938 133.379 71.6826C381.032 190.133 615.923 338.753 834.908 515.259C839.699 519.11 847.617 509.669 846.599 501.979C846.393 499.204 845.326 496.346 843.477 493.615C841.628 490.884 839.044 488.347 835.913 486.194C583.676 287.404 311.376 123.12 22.1969 2.98869C19.6016 1.55299 16.6181 0.692812 13.7205 0.544896C10.823 0.396982 8.17521 0.969099 6.19987 2.17143C0.864812 5.4882 -1.9556 16.556 2.92478 18.8368C145.239 86.5495 268.051 195.868 389.442 304.568C490.352 394.655 591.054 485.037 686.011 584.202L373.939 363.806C280.836 297.496 187.32 231.775 87.7695 178.964C85.0107 176.978 81.6054 175.601 78.1272 175.065C74.649 174.53 71.3134 174.869 68.6816 176.026C61.9682 179.247 57.3008 191.955 62.5685 196.331C158.592 277.453 244.234 364.146 317.916 454.81C320.536 458.012 323.625 461.442 327.728 460.844Z" fill="#423A70" fill-opacity="0.17"/>
</svg>
