<svg width="1920" height="42" viewBox="0 0 1920 42" fill="none" xmlns="http://www.w3.org/2000/svg">
<path d="M1920 0H0V17.0386L4.95532 14.4271L18.1455 16.4555L28.6394 24.3324L42.0481 26.3017L54.0723 29.1414L66.8979 23.0056L78.7034 25.4312L90.9463 29.9529L102.533 23.2338L114.776 26.42L126.654 27.1723L138.605 26.7074L148.881 31.3981L160.759 30.8234L171.18 35.9197L183.569 29.2598L194.573 32.2686L207.69 32.3277L219.277 27.6962L228.531 20.394L240.556 17.2668L253.017 14.4271L265.989 14.0806L279.033 15.6441L292.296 17.4443L305.413 13.4974L317.437 18.3655L331.065 16.2273L342.943 20.6306L354.749 24.7973L366.773 28.1611L378.943 31.5164L391.331 34.128L405.469 30.2402L417.274 34.5337L428.57 37.8298L440.375 38.0073L451.598 41.4218L463.622 40.6105L475.208 41.8866L487.087 38.4721L498.455 39.63L510.115 41.0752L522.285 36.8494L536.058 34.4745L547.864 28.3301L561.928 31.5164L574.171 22.3632L587.434 23.6986L599.604 25.896L611.191 23.1745L623.215 26.5384L634.947 27.2314L646.607 25.7862L658.413 22.0758L670.437 19.067L681.805 26.3017L694.048 22.3632L706.072 21.6702L728.226 31.6938L741.197 26.5384H753.221L761.31 38.413L773.771 36.7903L785.65 32.0995L796.29 33.6631L809.261 37.2551L818.37 28.795L828.864 23.8676L842.418 24.7381L852.329 18.3655L866.248 20.7997L875.722 12.6944L887.673 10.7168L900.28 12.1113L911.94 8.925L924.474 11.1225L937.373 8.80668L949.98 7.70796L961.931 11.1056L966.887 8.50242L980.077 16.3202L990.57 24.1973L1003.98 26.1664L1016 29.0063L1028.83 22.8703L1040.63 25.296L1052.88 29.8176L1064.46 23.0985L1076.71 26.2848L1088.59 27.037L1100.54 26.5721L1110.81 31.2629L1122.69 30.6881L1133.11 35.7845L1145.5 29.1245L1156.5 32.1333L1169.62 32.1926L1181.21 27.561L1190.46 20.2588L1202.49 17.1316L1214.95 14.2918L1227.92 13.9453L1240.96 15.5089L1254.23 17.3091L1267.34 13.3621L1279.37 18.2304L1293 16.092L1304.87 20.487L1316.68 24.6621L1328.7 28.0258L1340.87 31.3812L1353.26 33.9928L1367.4 30.105L1379.21 34.3984L1390.5 37.6946L1402.31 37.872L1413.53 41.2865L1425.55 40.4752L1437.14 41.7514L1449.02 38.337L1460.39 39.4949L1472.05 40.9401L1484.22 36.7142L1497.99 34.3393L1509.79 28.1949L1523.86 31.3812L1536.1 22.228L1549.37 23.5634L1561.54 25.7608L1573.12 23.0394L1585.15 26.4031L1596.88 27.0961L1608.54 25.6509L1620.34 21.9406L1632.37 18.9234L1643.74 26.1664L1655.98 22.228L1668 21.5349L1690.16 31.5587L1703.13 26.4031H1715.15L1723.24 38.2777L1735.7 36.655L1747.58 31.9644L1758.22 33.528L1771.19 37.1199L1780.3 28.6597L1790.79 23.7324L1804.35 24.603L1814.26 18.2304L1828.18 20.6644L1837.65 12.5508L1849.6 10.5815L1862.21 11.976L1873.87 8.78977L1886.41 10.9872L1899.3 8.67145L1911.91 7.57273L1920 8.38409V0Z" fill="currentColor"/>
</svg>
