<svg width="1920" height="39" viewBox="0 0 1920 39" fill="none" xmlns="http://www.w3.org/2000/svg">
<path d="M0 39H1920V23.1784L1915.04 25.6034L1901.85 23.7199L1891.36 16.4056L1877.95 14.577L1865.93 11.9401L1853.1 17.6377L1841.3 15.3853L1829.05 11.1866L1817.47 17.4258L1805.22 14.4671L1793.35 13.7686L1781.4 14.2003L1771.12 9.8446L1759.24 10.3783L1748.82 5.646L1736.43 11.8302L1725.43 9.0363L1712.31 8.9814L1700.72 13.2821L1691.47 20.0627L1679.44 22.9665L1666.98 25.6034L1654.01 25.9252L1640.97 24.4733L1627.7 22.8017L1614.59 26.4667L1602.56 21.9463L1588.93 23.9318L1577.06 19.843L1565.25 15.9739L1553.23 12.8504L1541.06 9.7348L1528.67 7.3097L1514.53 10.9198L1502.73 6.933L1491.43 3.8723L1479.62 3.7075L1468.4 0.5369L1456.38 1.2903L1444.79 0.105301L1432.91 3.2759L1421.55 2.2007L1409.89 0.8587L1397.72 4.7827L1383.94 6.988L1372.14 12.6935L1358.07 9.7348L1345.83 18.2342L1332.57 16.9942L1320.4 14.9537L1308.81 17.4808L1296.78 14.3572L1285.05 13.7137L1273.39 15.0557L1261.59 18.501L1249.56 21.2949L1238.2 14.577L1225.95 18.2342L1213.93 18.8777L1191.77 9.57L1178.8 14.3572H1166.78L1158.69 3.3308L1146.23 4.8376L1134.35 9.1933L1123.71 7.7414L1110.74 4.406L1101.63 12.2618L1091.14 16.8372L1077.58 16.0289L1067.67 21.9463L1053.75 19.686L1044.28 27.2123L1032.33 29.0487L1019.72 27.7538L1008.06 30.7125L995.526 28.672L982.627 30.8224L970.02 31.8426L958.069 28.6877L953.113 31.1049L939.923 23.8455L929.43 16.5311L916.02 14.7026L904 12.0656L891.17 17.7633L879.37 15.5109L867.12 11.3122L855.54 17.5514L843.29 14.5927L831.41 13.8942L819.46 14.3259L809.19 9.9702L797.31 10.5039L786.89 5.7715L774.5 11.9558L763.5 9.1619L750.38 9.1069L738.79 13.4076L729.54 20.1883L717.51 23.0921L705.05 25.729L692.08 26.0508L679.04 24.5989L665.77 22.9273L652.66 26.5923L640.63 22.0718L627 24.0574L615.13 19.9764L603.32 16.0995L591.3 12.976L579.13 9.8603L566.74 7.4353L552.6 11.0454L540.79 7.0586L529.5 3.9979L517.69 3.8331L506.47 0.662498L494.45 1.4159L482.86 0.230801L470.98 3.4014L459.61 2.3262L447.95 0.9842L435.78 4.9082L422.01 7.1135L410.21 12.819L396.14 9.8603L383.9 18.3597L370.63 17.1197L358.46 15.0793L346.88 17.6063L334.85 14.4828L323.12 13.8393L311.46 15.1813L299.66 18.6266L287.63 21.4283L276.26 14.7026L264.02 18.3597L252 19.0033L229.84 9.6955L216.87 14.4828H204.85L196.76 3.4564L184.3 4.9632L172.42 9.3188L161.78 7.8669L148.81 4.5315L139.7 12.3874L129.21 16.9628L115.65 16.1544L105.74 22.0718L91.8199 19.8116L82.35 27.3457L70.4 29.1743L57.79 27.8794L46.13 30.8381L33.59 28.7976L20.7 30.9479L8.08997 31.9682L0 31.2148V39Z" fill="currentColor"/>
</svg>
