<svg width="30" height="30" viewBox="0 0 28 28" fill="none" xmlns="http://www.w3.org/2000/svg">
<path d="M14 0.875C6.75195 0.875 0.875 6.75195 0.875 14C0.875 21.248 6.75195 27.125 14 27.125C21.248 27.125 27.125 21.248 27.125 14C27.125 6.75195 21.248 0.875 14 0.875ZM13.0625 7.67188C13.0625 7.54297 13.168 7.4375 13.2969 7.4375H14.7031C14.832 7.4375 14.9375 7.54297 14.9375 7.67188V15.6406C14.9375 15.7695 14.832 15.875 14.7031 15.875H13.2969C13.168 15.875 13.0625 15.7695 13.0625 15.6406V7.67188ZM14 20.5625C13.632 20.555 13.2816 20.4035 13.024 20.1406C12.7664 19.8777 12.6222 19.5243 12.6222 19.1562C12.6222 18.7882 12.7664 18.4348 13.024 18.1719C13.2816 17.909 13.632 17.7575 14 17.75C14.368 17.7575 14.7184 17.909 14.976 18.1719C15.2336 18.4348 15.3778 18.7882 15.3778 19.1562C15.3778 19.5243 15.2336 19.8777 14.976 20.1406C14.7184 20.4035 14.368 20.555 14 20.5625Z" fill="#D62616"/>
</svg>
