<svg width="25" height="25" viewBox="0 0 25 25" fill="currentColor" xmlns="http://www.w3.org/2000/svg">
<path d="M12.5 1.04163C14.9864 1.04163 17.371 2.02935 19.1291 3.7875C20.8873 5.54565 21.875 7.93022 21.875 10.4166C21.875 14.2979 18.9167 18.3645 13.125 22.7083C12.9447 22.8435 12.7254 22.9166 12.5 22.9166C12.2746 22.9166 12.0553 22.8435 11.875 22.7083C6.08333 18.3645 3.125 14.2979 3.125 10.4166C3.125 7.93022 4.11272 5.54565 5.87087 3.7875C7.62903 2.02935 10.0136 1.04163 12.5 1.04163ZM12.5 3.12496C10.5661 3.12496 8.71147 3.89319 7.34401 5.26064C5.97656 6.62809 5.20833 8.48276 5.20833 10.4166C5.20833 13.2395 7.41458 16.4958 11.925 20.1104L12.5 20.5645L13.075 20.1104C17.5854 16.4958 19.7917 13.2395 19.7917 10.4166C19.7917 8.48276 19.0234 6.62809 17.656 5.26064C16.2885 3.89319 14.4339 3.12496 12.5 3.12496ZM12.5 8.33329C13.0525 8.33329 13.5824 8.55279 13.9731 8.94349C14.3638 9.33419 14.5833 9.86409 14.5833 10.4166C14.5833 10.9692 14.3638 11.4991 13.9731 11.8898C13.5824 12.2805 13.0525 12.5 12.5 12.5C11.9475 12.5 11.4176 12.2805 11.0269 11.8898C10.6362 11.4991 10.4167 10.9692 10.4167 10.4166C10.4167 9.86409 10.6362 9.33419 11.0269 8.94349C11.4176 8.55279 11.9475 8.33329 12.5 8.33329Z" fill="currentColor"/>
</svg>
