<svg width="41" height="31" viewBox="0 0 41 31" fill="currentColor" xmlns="http://www.w3.org/2000/svg">
<path d="M38.7812 0.03125H2.21875C1.44092 0.03125 0.8125 0.659668 0.8125 1.4375V29.5625C0.8125 30.3403 1.44092 30.9688 2.21875 30.9688H38.7812C39.5591 30.9688 40.1875 30.3403 40.1875 29.5625V1.4375C40.1875 0.659668 39.5591 0.03125 38.7812 0.03125ZM37.0234 4.90039V27.8047H3.97656V4.90039L2.76367 3.95557L4.49072 1.73633L6.37158 3.19971H34.6328L36.5137 1.73633L38.2407 3.95557L37.0234 4.90039ZM34.6328 3.19531L20.5 14.1816L6.36719 3.19531L4.48633 1.73193L2.75928 3.95117L3.97217 4.896L18.9839 16.5679C19.4156 16.9033 19.9467 17.0853 20.4934 17.0853C21.0401 17.0853 21.5712 16.9033 22.0029 16.5679L37.0234 4.90039L38.2363 3.95557L36.5093 1.73633L34.6328 3.19531Z" fill="#423A70"/>
</svg>
