<svg width="26" height="26" viewBox="0 0 24 24" fill="none" xmlns="http://www.w3.org/2000/svg">
<path d="M22.7812 0.28125H1.21875C0.700195 0.28125 0.28125 0.700195 0.28125 1.21875V22.7812C0.28125 23.2998 0.700195 23.7188 1.21875 23.7188H22.7812C23.2998 23.7188 23.7188 23.2998 23.7188 22.7812V1.21875C23.7188 0.700195 23.2998 0.28125 22.7812 0.28125ZM17.376 7.71387L11.2061 16.2686C11.1198 16.3889 11.0061 16.487 10.8744 16.5546C10.7427 16.6223 10.5968 16.6576 10.4487 16.6576C10.3007 16.6576 10.1547 16.6223 10.023 16.5546C9.89132 16.487 9.77764 16.3889 9.69141 16.2686L6.03809 11.2061C5.92676 11.0508 6.03809 10.834 6.22852 10.834H7.60254C7.90137 10.834 8.18555 10.9775 8.36133 11.2236L10.4473 14.1182L15.0527 7.73144C15.2285 7.48828 15.5098 7.3418 15.8115 7.3418H17.1855C17.376 7.3418 17.4873 7.55859 17.376 7.71387Z" fill="#255634"/>
</svg>
