<svg xmlns="http://www.w3.org/2000/svg" width="500" height="500" version="1.0" viewBox="0 0 375 374.999991"><defs><clipPath id="d"><path d="M.71875.480469h4.5625V159H.71875Zm0 0"/></clipPath><clipPath id="c"><path d="M0 0h6v160H0z"/></clipPath><clipPath id="g"><path d="M110 79h5.28125v76.882812H110Zm0 0"/></clipPath><clipPath id="h"><path d="M103 79h12.28125v6H103Zm0 0"/></clipPath><clipPath id="i"><path d="M103 151h12.28125v4.882812H103Zm0 0"/></clipPath><clipPath id="j"><path d="M72 120h37v35.882812H72Zm0 0"/></clipPath><clipPath id="k"><path d="M.542969 31H50v95H.542969Zm0 0"/></clipPath><clipPath id="f"><path d="M0 0h116v157H0z"/></clipPath><mask id="b"><g filter="url(#a)"><path fill-opacity=".95" d="M-37.5-37.499999h450V412.49999h-450z"/></g></mask><mask id="e"><g filter="url(#a)"><path fill-opacity=".95" d="M-37.5-37.499999h450V412.49999h-450z"/></g></mask><filter id="a" width="100%" height="100%" x="0%" y="0%"><feColorMatrix color-interpolation-filters="sRGB" values="0 0 0 0 1 0 0 0 0 1 0 0 0 0 1 0 0 0 1 0"/></filter></defs><g mask="url(#b)"><g clip-path="url(#c)" transform="translate(150 108)"><g clip-path="url(#d)"><path fill="none" stroke="#fff" stroke-width="4.5" d="M2.99609375 2.88671916v153.23438509"/></g></g></g><g mask="url(#e)"><g clip-path="url(#f)" transform="translate(22 108)"><path fill="#fff" d="M21.375 69.246094c0-3.511719 1.367188-6.8125 3.855469-9.300782.933593-.933593 2.445312-.933593 3.378906 0 .933594.9375.933594 2.445313 0 3.382813-3.164063 3.160156-3.164063 8.667969 0 11.832031.933594.929688.933594 2.445313 0 3.382813-.933594.929687-2.445313.933593-3.378906 0-2.488281-2.484375-3.855469-5.785157-3.855469-9.296875Zm0 0"/><path fill="#fff" d="M16.804688 84.605469c0-.613281.234374-1.226563.699218-1.695313l45.675782-45.675781c.933593-.929687 2.445312-.929687 3.378906.003906.933594.933594.933594 2.445313.003906 3.378907L20.882812 86.292969c-.933593.933593-2.445312.933593-3.378906 0-.464844-.46875-.699218-1.078125-.699218-1.6875Zm0 0"/><path fill="#fff" d="M14.351562 95.597656c0-2.875 1.117188-5.582031 3.152344-7.613281 4.199219-4.199219 11.027344-4.199219 15.234375-.003906.933594.933593.929688 2.449219 0 3.378906-.933593.9375-2.445312.9375-3.382812.007813-2.339844-2.339844-6.136719-2.339844-8.472657-.003907-2.261718 2.261719-2.261718 6.207031.003907 8.472657.933593.9375.933593 2.445312 0 3.382812-.933594.933594-2.445313.933594-3.382813 0-2.035156-2.035156-3.152344-4.742188-3.152344-7.621094ZM43 104.011719c0-.609375.234375-1.222657.699219-1.6875.933593-.933594 2.449219-.933594 3.382812 0 1.125 1.128906 2.628907 1.75 4.222657 1.75s3.097656-.621094 4.226562-1.75c2.328125-2.332031 2.328125-6.121094 0-8.449219-.9375-.9375-.9375-2.445312 0-3.382812.933594-.929688 2.445312-.929688 3.378906.003906 4.1875 4.1875 4.199219 11.011718.003906 15.207031-2.035156 2.035156-4.734374 3.152344-7.609374 3.152344s-5.574219-1.121094-7.605469-3.148438C43.234375 105.238281 43 104.625 43 104.011719Zm0 0"/><path fill="#fff" d="M28.65625 89.671875c0-.613281.234375-1.222656.703125-1.6875.933594-.9375 2.445313-.9375 3.378906 0l14.339844 14.339844c.9375.933593.9375 2.445312 0 3.378906-.933594.933594-2.445313.933594-3.378906 0L29.359375 91.363281c-.46875-.464843-.703125-1.082031-.703125-1.691406ZM48.070312 98.945312c0-.617187.234376-1.230468.699219-1.695312.9375-.933594 2.449219-.929688 3.382813 0 .449218.457031 1.050781.707031 1.683594.703125.640624.003906 1.242187-.246094 1.6875-.695313.914062-.910156.910156-2.476562.003906-3.382812-.933594-.929688-.933594-2.445312-.003906-3.382812.933593-.929688 2.445312-.933594 3.382812 0 2.714844 2.710937 2.714844 7.433593 0 10.144531-1.347656 1.351562-3.148438 2.097656-5.066406 2.101562-1.914063 0-3.71875-.75-5.074219-2.105469-.460937-.46875-.695313-1.078124-.695313-1.6875Zm0 0"/><path fill="#fff" d="M33.730469 84.605469c0-.617188.234375-1.226563.695312-1.695313.9375-.933594 2.445313-.933594 3.382813 0l14.339844 14.34375c.933593.933594.9375 2.445313 0 3.378906-.933594.933594-2.445313.933594-3.378907 0L34.429688 86.292969c-.464844-.46875-.699219-1.078125-.699219-1.6875ZM63.28125 63.453125c0-.613281.234375-1.226563.699219-1.691406 3.730469-3.726563 9.796875-3.726563 13.523437 0 3.730469 3.730469 3.730469 9.796875 0 13.523437-.933594.929688-2.441406.929688-3.378906-.003906-.933594-.933594-.933594-2.445312 0-3.378906 1.863281-1.863282 1.863281-4.898438 0-6.761719-1.863281-1.863281-4.898438-1.863281-6.761719 0-.9375.9375-2.445312.9375-3.382812 0-.464844-.464844-.699219-1.074219-.699219-1.6875Zm0 0"/><path fill="#fff" d="M54.835938 92.183594c0-.613282.234374-1.222656.699218-1.691406L74.125 71.90625c.933594-.933594 2.445312-.933594 3.378906 0 .933594.933594.933594 2.445312 0 3.378906L58.914062 93.875c-.933593.933594-2.445312.933594-3.378906 0-.464844-.46875-.699218-1.078125-.699218-1.691406ZM39.742188 76.855469c0-.609375.234374-1.222657.703124-1.691407l31.972657-31.96875c.933593-.933593 2.445312-.933593 3.378906 0 .933594.933594.933594 2.445313 0 3.378907L43.824219 78.546875c-.933594.933594-2.445313.933594-3.378907 0-.46875-.46875-.703124-1.078125-.703124-1.691406Zm0 0"/><path fill="#fff" d="M47.226562 54.160156c-.003906-.613281.234376-1.222656.699219-1.691406.933594-.9375 2.445313-.9375 3.378907 0L74.125 75.285156c.9375.933594.9375 2.445313 0 3.378906-.933594.9375-2.445312.9375-3.378906 0l-22.820313-22.8125c-.46875-.46875-.699219-1.085937-.699219-1.691406ZM42.152344 59.226562c0-.609374.234375-1.222656.703125-1.6875.933593-.933593 2.441406-.933593 3.378906 0l29.582031 29.578126c.933594.9375.933594 2.449218 0 3.382812-.9375.933594-2.449218.933594-3.382812 0L42.855469 60.917969c-.46875-.46875-.703125-1.074219-.703125-1.691407ZM37.082031 64.296875c0-.613281.234375-1.222656.703125-1.6875.933594-.9375 2.445313-.9375 3.378906 0l24.511719 24.507813c.933594.9375.933594 2.445312 0 3.382812-.9375.933594-2.445312.933594-3.382812 0L37.785156 65.988281c-.46875-.46875-.703125-1.078125-.703125-1.691406ZM24.527344 61.636719c0-.613281.234375-1.222657.703125-1.691407l20.160156-20.160156c.933594-.9375 2.445313-.9375 3.378906 0 .933594.9375.933594 2.445313 0 3.382813L28.609375 63.328125c-.933594.929687-2.445313.933594-3.378906 0-.46875-.46875-.703125-1.082031-.703125-1.691406Zm0 0"/><path fill="#fff" d="M17.648438 55.003906c0-.613281.234374-1.222656.699218-1.691406.933594-.9375 2.445313-.9375 3.378906 0L58.914062 90.5c.933594.933594.933594 2.445312 0 3.378906-.933593.933594-2.445312.9375-3.378906 0l-37.1875-37.183594c-.464844-.46875-.699218-1.082031-.699218-1.691406ZM44.691406 41.480469c0-.617188.230469-1.226563.699219-1.691407.933594-.9375 2.445313-.9375 3.378906 0l15.21875 15.21875c.933594.933594.933594 2.445313 0 3.378907-.9375.929687-2.445312.933593-3.382812 0l-15.214844-15.21875c-.46875-.464844-.699219-1.078125-.699219-1.6875ZM59.902344 66.832031c0-.613281.234375-1.226562.703125-1.691406L77.1875 48.558594c.933594-.933594 2.441406-.933594 3.378906 0 .933594.933594.933594 2.445312 0 3.378906L63.984375 68.519531c-.933594.9375-2.441406.9375-3.378906 0-.46875-.464843-.703125-1.078125-.703125-1.6875ZM71.71875 88.824219c0-.613281.234375-1.222657.699219-1.6875.933593-.9375 2.445312-.9375 3.378906-.003907 1.617187 1.617188 3.835937 2.363282 6.097656 2.042969 1.304688-.1875 2.519531.726563 2.703125 2.03125.191406 1.300781-.726562 2.519531-2.035156 2.703125-3.761719.53125-7.457031-.707031-10.144531-3.394531-.46875-.472656-.703125-1.082031-.699219-1.691406Zm0 0"/><path fill="#fff" d="M71.71875 88.824219c0-.613281.234375-1.226563.703125-1.691407 1.816406-1.820312 1.816406-4.980468-.003906-6.800781-.933594-.933593-.933594-2.441406 0-3.378906.933593-.933594 2.449219-.933594 3.378906 0 3.628906 3.628906 3.632813 9.9375-.003906 13.5625-.933594.933594-2.441407.933594-3.378907-.003906-.464843-.46875-.699218-1.078125-.695312-1.6875ZM13.300781 93.0625c0-3.832031 1.488281-7.4375 4.203125-10.152344 5.597656-5.59375 14.707032-5.597656 20.304688 0 2.710937 2.714844 4.207031 6.320313 4.207031 10.152344 0 3.835938-1.496094 7.441406-4.207031 10.15625-2.714844 2.710938-6.320313 4.207031-10.152344 4.203125-3.835938 0-7.4375-1.492187-10.152344-4.203125-2.710937-2.714844-4.203125-6.320312-4.203125-10.15625Zm23.933594.003906c0-2.558594-.996094-4.964844-2.804687-6.773437-3.734376-3.734375-9.808594-3.734375-13.546876 0-1.808593 1.808593-2.804687 4.210937-2.804687 6.769531 0 2.554688 1 4.964844 2.808594 6.773438 1.808593 1.8125 4.210937 2.804687 6.769531 2.804687 2.558594 0 4.960938-.992187 6.769531-2.804687 1.8125-1.808594 2.808594-4.210938 2.808594-6.769532ZM39.476562 64.292969c1.414063 1.386719 1.414063 3.65625 0 5.066406-1.410156 1.386719-3.683593 1.386719-5.066406 0C33 67.949219 33 65.679688 34.410156 64.292969c1.410156-1.410157 3.65625-1.410157 5.066406 0ZM12.417969 48.183594c0-.617188.234375-1.230469.710937-1.699219L56.152344 3.816406c.9375-.929687 2.453125-.925781 3.382812.015625.929688.941407.921875 2.449219-.015625 3.382813L16.492188 49.882812c-.9375.925782-2.449219.921876-3.378907-.019531-.460937-.464843-.695312-1.074219-.695312-1.679687Zm0 0"/><path fill="#fff" d="M7.640625 73.613281c0 10.925781 4.421875 20.773438 11.566406 27.898438 7.148438 7.121093 16.996094 11.542969 27.871094 11.542969v.027343h27.492187c17.183594 0 31.074219-13.914062 31.074219-31.078125h7.171875v71.710938h-7.171875c0-17.183594-13.890625-31.074219-31.074219-31.070313H47.078125c-24.429687-.003906-44.21875-19.820312-44.21875-44.246093 0-11.691407 4.539063-22.300782 11.949219-30.21875l.023437-.023438 2.082031-2.054688.429688-.429687c7.386719-6.71875 17.042969-10.972656 27.703125-11.453125-20.820313 1.058594-37.40625 18.292969-37.40625 39.394531Zm0 0"/><g clip-path="url(#g)"><path fill="#fff" d="M110.425781 153.714844V82.003906c0-1.316406 1.066407-2.390625 2.390625-2.390625 1.320313 0 2.386719 1.074219 2.390625 2.390625l-.003906 71.710938c0 1.324218-1.070313 2.390625-2.386719 2.390625-1.328125 0-2.394531-1.066407-2.390625-2.390625Zm0 0"/></g><g clip-path="url(#h)"><path fill="#fff" d="M103.257812 82.003906c0-1.316406 1.066407-2.390625 2.386719-2.390625h7.171875c1.320313 0 2.390625 1.074219 2.390625 2.390625 0 1.324219-1.070312 2.390625-2.390625 2.390625h-7.171875c-1.320312 0-2.386719-1.066406-2.386719-2.390625Zm0 0"/></g><g clip-path="url(#i)"><path fill="#fff" d="M103.253906 153.714844c0-1.316406 1.066406-2.386719 2.390625-2.386719l7.167969-.003906c1.320312.003906 2.390625 1.070312 2.390625 2.390625 0 1.324218-1.070313 2.390625-2.386719 2.390625h-7.171875c-1.324219 0-2.390625-1.066407-2.390625-2.390625Zm0 0"/></g><path fill="#fff" d="M72.179688 113.082031c0-1.320312 1.070312-2.390625 2.390624-2.390625 15.816407 0 28.683594-12.867187 28.6875-28.6875 0-1.316406 1.070313-2.390625 2.386719-2.390625 1.320313 0 2.390625 1.074219 2.390625 2.390625 0 18.453125-15.011718 33.464844-33.464844 33.464844-1.320312 0-2.390624-1.066406-2.390624-2.386719Zm0 0"/><g clip-path="url(#j)"><path fill="#fff" d="M72.179688 122.644531c0-1.324219 1.066406-2.390625 2.390624-2.390625 18.453126 0 33.464844 15.007813 33.464844 33.460938 0 1.324218-1.070312 2.390625-2.390625 2.390625-1.324219 0-2.390625-1.066407-2.390625-2.390625-.003906-15.816406-12.871094-28.683594-28.683594-28.683594-1.324218 0-2.390624-1.066406-2.390624-2.386719Zm0 0"/></g><path fill="#fff" d="M5.25 73.632812c.003906-23.0625 18.765625-41.828124 41.828125-41.828124 1.324219 0 2.390625 1.066406 2.390625 2.386718 0 1.324219-1.066406 2.390625-2.390625 2.394532-20.425781 0-37.042969 16.621093-37.046875 37.046874.003906 20.429688 16.621094 37.050782 37.046875 37.046876 1.324219 0 2.390625 1.070312 2.390625 2.390624 0 1.320313-1.066406 2.390626-2.390625 2.394532-23.0625 0-41.824219-18.769532-41.828125-41.832032Zm0 0"/><path fill="#fff" d="M44.691406 113.074219c0-1.324219 1.066406-2.390625 2.386719-2.394531 20.433594 0 37.050781-16.621094 37.050781-37.046876 0-20.425781-16.617187-37.046874-37.050781-37.046874-1.320313 0-2.386719-1.070313-2.386719-2.390626 0-1.324218 1.0625-2.390624 2.386719-2.390624 23.070313 0 41.832031 18.765624 41.832031 41.828124 0 23.066407-18.765625 41.832032-41.832031 41.832032-1.320313 0-2.386719-1.074219-2.386719-2.390625Zm0 0"/><g clip-path="url(#k)"><path fill="#fff" d="M.46875 78.414062c0-25.699218 20.910156-46.609374 46.609375-46.609374 1.324219 0 2.390625 1.066406 2.390625 2.386718 0 1.324219-1.066406 2.390625-2.390625 2.394532C24.015625 36.582031 5.25 55.351562 5.25 78.414062c0 23.066407 18.765625 41.839844 41.828125 41.839844 1.324219-.003906 2.390625 1.066406 2.390625 2.390625 0 1.320313-1.070312 2.386719-2.390625 2.386719-25.699219 0-46.609375-20.910156-46.609375-46.617188Zm0 0"/></g><path fill="#fff" d="M44.691406 122.644531c0-1.324219 1.066406-2.390625 2.386719-2.390625h27.492187c1.320313 0 2.390626 1.066406 2.390626 2.386719 0 1.324219-1.070313 2.390625-2.390626 2.390625H47.078125c-1.320313 0-2.386719-1.066406-2.386719-2.386719ZM44.691406 113.082031c0-1.324219 1.0625-2.390625 2.386719-2.390625h27.492187c1.320313 0 2.390626 1.070313 2.390626 2.390625 0 1.324219-1.066407 2.390625-2.390626 2.386719l-27.492187.003906c-1.320313 0-2.386719-1.066406-2.386719-2.390625ZM49.609375 59.226562c-1.382813 1.386719-3.65625 1.386719-5.0625 0-1.386719-1.410156-1.386719-3.679687 0-5.066406 1.410156-1.414062 3.679687-1.414062 5.066406-.003906 1.410157 1.386719 1.410157 3.660156-.003906 5.070312Zm0 0"/><path fill="#fff" d="M44.542969 64.292969c-1.386719 1.386719-3.652344 1.386719-5.066407 0-1.410156-1.410157-1.410156-3.679688 0-5.066407 1.414063-1.410156 3.679688-1.410156 5.066407 0 1.410156 1.386719 1.410156 3.65625 0 5.066407ZM54.679688 54.15625c-1.386719 1.386719-3.65625 1.386719-5.066407 0-1.386719-1.410156-1.386719-3.679688 0-5.089844 1.410157-1.386718 3.679688-1.386718 5.066407 0 1.410156 1.410156 1.410156 3.679688 0 5.089844ZM27.789062 44.863281c0-.613281.234376-1.226562.699219-1.691406.933594-.933594 2.445313-.933594 3.382813 0l6.757812 6.753906c.9375.9375.9375 2.445313 0 3.378907-.929687.9375-2.445312.9375-3.378906 0l-6.761719-6.753907c-.46875-.464843-.699219-1.074219-.699219-1.6875ZM22.71875 49.929688c0-.609376.234375-1.222657.703125-1.6875.929687-.933594 2.445313-.933594 3.378906 0L33.558594 55c.9375.933594.9375 2.441406 0 3.378906-.929688.933594-2.445313.933594-3.378906 0L23.421875 51.625c-.46875-.46875-.703125-1.082031-.703125-1.695312ZM17.648438 55.003906c0-.613281.234374-1.222656.699218-1.691406.933594-.9375 2.445313-.9375 3.378906 0l6.761719 6.757812c.933594.933594.933594 2.445313 0 3.378907-.933593.933593-2.445312.933593-3.382812 0l-6.757813-6.753907c-.464844-.46875-.699218-1.082031-.699218-1.691406Zm0 0"/></g></g><path fill="#fff" d="M189.404223 121.736963c-.179688 1.824219-.265625 3.464844-.265625 4.921875 0 1.273438.035156 2.320312.109375 3.140625h-.875c-.210938-1.96875-.46875-3.429687-.78125-4.390625-.304688-.957031-.839844-1.660156-1.609375-2.109375-.761719-.445313-1.9375-.671875-3.53125-.671875h-2.0625v21.828125c0 1.074219.097656 1.855469.296875 2.34375.207031.492187.566406.824219 1.078125 1 .507813.179687 1.34375.292969 2.5.34375v.765625c-1.335937-.0703125-3.214844-.109375-5.640625-.109375-2.5625 0-4.460938.0390625-5.6875.109375v-.765625c1.15625-.050781 1.988281-.164063 2.5-.34375.507812-.175781.863281-.507813 1.0625-1 .207031-.488281.3125-1.269531.3125-2.34375v-21.828125h-2.0625c-1.59375 0-2.777344.226562-3.546875.671875-.761719.449219-1.296875 1.152344-1.609375 2.109375-.304688.960938-.554688 2.421875-.75 4.390625h-.890625c.070313-.820313.109375-1.867187.109375-3.140625 0-1.457031-.089844-3.097656-.265625-4.921875 2.125.085937 5.734375.125 10.828125.125 5.0625 0 8.65625-.039063 10.78125-.125ZM201.026559 128.611963c2.601563 0 4.703125.867187 6.296875 2.59375 1.601562 1.71875 2.40625 4.335937 2.40625 7.84375 0 3.5-.804688 6.109375-2.40625 7.828125-1.59375 1.710938-3.695312 2.5625-6.296875 2.5625-2.617187 0-4.726563-.851562-6.328125-2.5625-1.59375-1.71875-2.390625-4.328125-2.390625-7.828125 0-3.507813.796875-6.125 2.390625-7.84375 1.601562-1.726563 3.710938-2.59375 6.328125-2.59375Zm0 .765625c-1.53125 0-2.746094.789062-3.640625 2.359375-.898438 1.574219-1.34375 4.011719-1.34375 7.3125 0 3.304687.445312 5.734375 1.34375 7.296875.894531 1.554688 2.109375 2.328125 3.640625 2.328125s2.742187-.773437 3.640625-2.328125c.894531-1.5625 1.34375-3.992188 1.34375-7.296875 0-3.300781-.449219-5.738281-1.34375-7.3125-.898438-1.570313-2.109375-2.359375-3.640625-2.359375ZM224.58254 128.611963c1.019531 0 1.859375.296875 2.515625.890625.65625.585938.984375 1.296875.984375 2.140625 0 .667969-.203125 1.242187-.609375 1.71875-.398438.46875-.921875.703125-1.578125.703125-.5625 0-1.046875-.175781-1.453125-.53125-.398438-.363281-.59375-.851562-.59375-1.46875 0-.84375.4375-1.535156 1.3125-2.078125-.179688-.25-.449219-.375-.8125-.375-.992188 0-1.898438.390625-2.71875 1.171875-.824219.773438-1.464844 1.726562-1.921875 2.859375-.460937 1.125-.6875 2.183594-.6875 3.171875v8.140625c0 1.179687.335937 1.996094 1.015625 2.453125.675781.460938 1.691406.6875 3.046875.6875v.8125l-.921875-.03125c-2.605469-.082031-4.265625-.125-4.984375-.125-.667969 0-2.179687.054688-4.53125.15625v-.8125c1.070313 0 1.828125-.195312 2.265625-.59375.4375-.394531.65625-1.113281.65625-2.15625v-12.015625c0-1.175781-.21875-2.03125-.65625-2.5625-.4375-.539063-1.195312-.8125-2.265625-.8125v-.8125c.820313.085937 1.613281.125 2.375.125 1.613281 0 2.945313-.179687 4-.546875v4.796875c.457031-1.28125 1.191406-2.414063 2.203125-3.40625 1.007812-1 2.128906-1.5 3.359375-1.5ZM239.12429 128.611963c2.601563 0 4.703125.867187 6.296875 2.59375 1.601562 1.71875 2.40625 4.335937 2.40625 7.84375 0 3.5-.804688 6.109375-2.40625 7.828125-1.59375 1.710938-3.695312 2.5625-6.296875 2.5625-2.617187 0-4.726563-.851562-6.328125-2.5625-1.59375-1.71875-2.390625-4.328125-2.390625-7.828125 0-3.507813.796875-6.125 2.390625-7.84375 1.601562-1.726563 3.710938-2.59375 6.328125-2.59375Zm0 .765625c-1.53125 0-2.746094.789062-3.640625 2.359375-.898438 1.574219-1.34375 4.011719-1.34375 7.3125 0 3.304687.445312 5.734375 1.34375 7.296875.894531 1.554688 2.109375 2.328125 3.640625 2.328125s2.742187-.773437 3.640625-2.328125c.894531-1.5625 1.34375-3.992188 1.34375-7.296875 0-3.300781-.449219-5.738281-1.34375-7.3125-.898438-1.570313-2.109375-2.359375-3.640625-2.359375ZM263.633396 128.611963c1.789062 0 3.148438.484375 4.078125 1.453125.476563.511719.820313 1.152344 1.03125 1.921875.207031.773437.3125 1.808594.3125 3.109375v10.25c0 1.042969.210937 1.761719.640625 2.15625.4375.398438 1.191406.59375 2.265625.59375v.8125c-2.355469-.101562-3.886719-.15625-4.59375-.15625-.71875 0-2.152344.054688-4.296875.15625v-.8125c.9375 0 1.59375-.195312 1.96875-.59375.375-.394531.5625-1.113281.5625-2.15625v-11.09375c0-1.4375-.210938-2.53125-.625-3.28125-.40625-.757812-1.234375-1.140625-2.484375-1.140625-1.054687 0-1.992187.308594-2.8125.921875-.8125.617188-1.445313 1.453125-1.890625 2.515625-.449219 1.0625-.671875 2.246094-.671875 3.546875v8.53125c0 1.042969.179687 1.761719.546875 2.15625.375.398438 1.035156.59375 1.984375.59375v.8125c-2.148437-.101562-3.578125-.15625-4.296875-.15625s-2.257812.054688-4.609375.15625v-.8125c1.070313 0 1.828125-.195312 2.265625-.59375.4375-.394531.65625-1.113281.65625-2.15625v-12.015625c0-1.175781-.21875-2.03125-.65625-2.5625-.4375-.539063-1.195312-.8125-2.265625-.8125v-.8125c.820313.085937 1.613281.125 2.375.125 1.613281 0 2.945313-.179687 4-.546875v4.53125c.632813-1.632812 1.519531-2.816406 2.65625-3.546875 1.144531-.726563 2.429687-1.09375 3.859375-1.09375ZM279.834944 129.190088h5.671875v.765625h-5.671875v14.84375c0 1.15625.207031 1.992187.625 2.5.425781.511719 1.035156.765625 1.828125.765625.789062 0 1.46875-.316406 2.03125-.953125.5625-.644531 1.035156-1.695313 1.421875-3.15625l.765625.1875c-.636719 3.53125-2.296875 5.296875-4.984375 5.296875-.875 0-1.59375-.105469-2.15625-.3125-.5625-.1992188-1.0625-.515625-1.5-.953125-.5625-.5625-.953125-1.25-1.171875-2.0625-.210938-.820313-.3125-1.925781-.3125-3.3125v-12.84375h-3.6875v-.765625h3.6875v-5.875c1.425781-.050781 2.578125-.234375 3.453125-.546875ZM296.635368 128.611963c2.601563 0 4.703125.867187 6.296875 2.59375 1.601562 1.71875 2.40625 4.335937 2.40625 7.84375 0 3.5-.804688 6.109375-2.40625 7.828125-1.59375 1.710938-3.695312 2.5625-6.296875 2.5625-2.617187 0-4.726563-.851562-6.328125-2.5625-1.59375-1.71875-2.390625-4.328125-2.390625-7.828125 0-3.507813.796875-6.125 2.390625-7.84375 1.601562-1.726563 3.710938-2.59375 6.328125-2.59375Zm0 .765625c-1.53125 0-2.746094.789062-3.640625 2.359375-.898438 1.574219-1.34375 4.011719-1.34375 7.3125 0 3.304687.445312 5.734375 1.34375 7.296875.894531 1.554688 2.109375 2.328125 3.640625 2.328125s2.742187-.773437 3.640625-2.328125c.894531-1.5625 1.34375-3.992188 1.34375-7.296875 0-3.300781-.449219-5.738281-1.34375-7.3125-.898438-1.570313-2.109375-2.359375-3.640625-2.359375ZM198.607348 175.497122c1.15625 0 2.117187-.039063 2.890625-.125v.765625c-1.4375.335938-2.449219 1.449219-3.03125 3.34375l-7.265625 23.25h-.609375l-6.671875-19.765625-6.109375 19.765625h-.609375l-8.140625-24.140625c-.53125-1.582031-1.414062-2.398437-2.640625-2.453125v-.765625c1.050781.085937 2.421875.125 4.109375.125 1.832031 0 3.210938-.039063 4.140625-.125v.765625c-.6875.054688-1.171875.183594-1.453125.390625-.28125.199219-.421875.515625-.421875.953125 0 .417969.140625 1.046875.421875 1.890625l5.59375 17.109375 4.6875-14.859375-1.046875-3.03125c-.511719-1.582031-1.261719-2.398437-2.25-2.453125v-.765625c.914063.085937 2.15625.125 3.71875.125 2.195313 0 3.832031-.039063 4.90625-.125v.765625c-.96875.054688-1.648437.164062-2.03125.328125-.386719.167969-.578125.523437-.578125 1.0625 0 .460937.128906 1.074219.390625 1.84375l5.515625 17.0625 4.71875-14.84375c.414062-1.25.625-2.285156.625-3.109375 0-.84375-.261719-1.4375-.78125-1.78125-.511719-.34375-1.339844-.53125-2.484375-.5625v-.765625c1.457031.085937 2.925781.125 4.40625.125ZM206.891328 173.184622c.664063 0 1.238281.246094 1.71875.734375.488281.480469.734375 1.054688.734375 1.71875 0 .667969-.246094 1.246094-.734375 1.734375-.480469.492187-1.054687.734375-1.71875.734375-.667969 0-1.246094-.242188-1.734375-.734375-.480469-.488281-.71875-1.066406-.71875-1.734375 0-.664062.238281-1.238281.71875-1.71875.488281-.488281 1.066406-.734375 1.734375-.734375Zm2 25.796875c0 1.042969.210937 1.761719.640625 2.15625.4375.398438 1.195312.59375 2.28125.59375v.8125c-2.355469-.101562-3.90625-.15625-4.65625-.15625-.742188 0-2.289062.054688-4.640625.15625v-.8125c1.070313 0 1.828125-.195312 2.265625-.59375.4375-.394531.65625-1.113281.65625-2.15625v-12.015625c0-1.175781-.21875-2.03125-.65625-2.5625-.4375-.539063-1.195312-.8125-2.265625-.8125v-.8125c.820313.085937 1.613281.125 2.375.125 1.613281 0 2.945313-.179687 4-.546875ZM226.64828 182.247122c1.789062 0 3.148438.484375 4.078125 1.453125.476563.511719.820313 1.152344 1.03125 1.921875.207031.773437.3125 1.808594.3125 3.109375v10.25c0 1.042969.210937 1.761719.640625 2.15625.4375.398438 1.191406.59375 2.265625.59375v.8125c-2.355469-.101562-3.886719-.15625-4.59375-.15625-.71875 0-2.152344.054688-4.296875.15625v-.8125c.9375 0 1.59375-.195312 1.96875-.59375.375-.394531.5625-1.113281.5625-2.15625v-11.09375c0-1.4375-.210938-2.53125-.625-3.28125-.40625-.757812-1.234375-1.140625-2.484375-1.140625-1.054687 0-1.992187.308594-2.8125.921875-.8125.617188-1.445313 1.453125-1.890625 2.515625-.449219 1.0625-.671875 2.246094-.671875 3.546875v8.53125c0 1.042969.179687 1.761719.546875 2.15625.375.398438 1.035156.59375 1.984375.59375v.8125c-2.148437-.101562-3.578125-.15625-4.296875-.15625s-2.257812.054688-4.609375.15625v-.8125c1.070313 0 1.828125-.195312 2.265625-.59375.4375-.394531.65625-1.113281.65625-2.15625v-12.015625c0-1.175781-.21875-2.03125-.65625-2.5625-.4375-.539063-1.195312-.8125-2.265625-.8125v-.8125c.820313.085937 1.613281.125 2.375.125 1.613281 0 2.945313-.179687 4-.546875v4.53125c.632813-1.632812 1.519531-2.816406 2.65625-3.546875 1.144531-.726563 2.429687-1.09375 3.859375-1.09375ZM254.131079 198.356497c0 1.179688.210937 2.039062.640625 2.578125.4375.53125 1.191406.796875 2.265625.796875v.8125c-.792969-.0703125-1.585937-.109375-2.375-.109375-1.617187 0-2.945313.1757812-3.984375.53125v-3.421875c-.46875 1.15625-1.164062 2.039062-2.078125 2.640625-.917969.59375-2.042969.890625-3.375.890625-2.460937 0-4.386719-.878906-5.78125-2.640625-1.398437-1.769531-2.078125-4.351563-2.046875-7.75 0-2.226563.390625-4.128906 1.171875-5.703125.78125-1.570312 1.828125-2.753906 3.140625-3.546875 1.320312-.789063 2.773438-1.1875 4.359375-1.1875.96875 0 1.851563.1875 2.65625.5625.8125.367187 1.460937.933594 1.953125 1.703125v-7.453125c0-1.175781-.21875-2.03125-.65625-2.5625-.4375-.539063-1.195312-.8125-2.265625-.8125v-.796875c.820313.074219 1.613281.109375 2.375.109375 1.613281 0 2.945313-.175781 4-.53125Zm-7.796875 3.578125c1 0 1.894531-.382813 2.6875-1.15625.789062-.769531 1.34375-1.859375 1.65625-3.265625v-11.4375c-.699219-1.96875-2.132812-2.953125-4.296875-2.953125-1.59375 0-2.875.8125-3.84375 2.4375s-1.445313 4-1.421875 7.125c-.023438 3.074219.414062 5.386719 1.3125 6.9375.894531 1.542969 2.195312 2.3125 3.90625 2.3125ZM180.919848 228.476031c1.539063 0 2.847656.21875 3.921875.65625 1.070312.429687 2.117188 1.039063 3.140625 1.828125.28125.242188.523437.359375.734375.359375.507812 0 .84375-.769531 1-2.3125h.875c-.105469 1.667969-.15625 4.609375-.15625 8.828125h-.875c-.28125-1.664062-.539062-2.863281-.765625-3.59375-.230469-.726562-.617187-1.421875-1.15625-2.078125-.773437-1-1.75-1.75-2.9375-2.25s-2.476563-.75-3.859375-.75c-1.65625 0-3.109375.554687-4.359375 1.65625-1.242187 1.09375-2.203125 2.664063-2.890625 4.703125-.6875 2.03125-1.03125 4.414062-1.03125 7.140625 0 2.792969.367188 5.1875 1.109375 7.1875.738281 1.992187 1.765625 3.507813 3.078125 4.546875 1.320312 1.03125 2.816406 1.546875 4.484375 1.546875 1.28125 0 2.519531-.238281 3.71875-.71875 1.195313-.488281 2.144531-1.21875 2.84375-2.1875.507813-.71875.878906-1.484375 1.109375-2.296875.226562-.820312.445312-2.078125.65625-3.765625h.875c0 4.398437.050781 7.464844.15625 9.203125h-.875c-.085938-.820312-.199219-1.40625-.34375-1.75-.136719-.34375-.328125-.515625-.578125-.515625-.210937 0-.480469.105469-.8125.3125-1.148437.8125-2.246094 1.433594-3.296875 1.859375-1.054688.414062-2.320312.625-3.796875.625-2.4375 0-4.574219-.546875-6.40625-1.640625-1.824219-1.101563-3.242187-2.695313-4.25-4.78125-1.011719-2.082031-1.515625-4.570313-1.515625-7.46875 0-2.8125.515625-5.300781 1.546875-7.46875 1.039063-2.175781 2.488281-3.863281 4.34375-5.0625 1.851563-1.207031 3.957031-1.8125 6.3125-1.8125ZM203.597097 235.882281c2.601563 0 4.703125.867187 6.296875 2.59375 1.601562 1.71875 2.40625 4.335937 2.40625 7.84375 0 3.5-.804688 6.109375-2.40625 7.828125-1.59375 1.710938-3.695312 2.5625-6.296875 2.5625-2.617187 0-4.726563-.851562-6.328125-2.5625-1.59375-1.71875-2.390625-4.328125-2.390625-7.828125 0-3.507813.796875-6.125 2.390625-7.84375 1.601562-1.726563 3.710938-2.59375 6.328125-2.59375Zm0 .765625c-1.53125 0-2.746094.789062-3.640625 2.359375-.898438 1.574219-1.34375 4.011719-1.34375 7.3125 0 3.304687.445312 5.734375 1.34375 7.296875.894531 1.554688 2.109375 2.328125 3.640625 2.328125s2.742187-.773437 3.640625-2.328125c.894531-1.5625 1.34375-3.992188 1.34375-7.296875 0-3.300781-.449219-5.738281-1.34375-7.3125-.898438-1.570313-2.109375-2.359375-3.640625-2.359375ZM221.324953 252.616656c0 1.042969.210938 1.761719.640625 2.15625.4375.398438 1.191406.59375 2.265625.59375v.8125c-2.355469-.101562-3.902344-.15625-4.640625-.15625-.742187 0-2.289063.054688-4.640625.15625v-.8125c1.070312 0 1.828125-.195312 2.265625-.59375.4375-.394531.65625-1.113281.65625-2.15625v-21.921875c0-1.175781-.21875-2.03125-.65625-2.5625-.4375-.539063-1.195313-.8125-2.265625-.8125v-.796875c.789062.074219 1.582031.109375 2.375.109375 1.613281 0 2.945312-.175781 4-.53125ZM232.297703 252.616656c0 1.042969.210938 1.761719.640625 2.15625.4375.398438 1.191406.59375 2.265625.59375v.8125c-2.355469-.101562-3.902344-.15625-4.640625-.15625-.742187 0-2.289063.054688-4.640625.15625v-.8125c1.070312 0 1.828125-.195312 2.265625-.59375.4375-.394531.65625-1.113281.65625-2.15625v-21.921875c0-1.175781-.21875-2.03125-.65625-2.5625-.4375-.539063-1.195313-.8125-2.265625-.8125v-.796875c.789062.074219 1.582031.109375 2.375.109375 1.613281 0 2.945312-.175781 4-.53125ZM253.817327 251.569781c-.460937 1.40625-1.324219 2.617187-2.59375 3.625-1.261719 1.0078125-2.789063 1.515625-4.578125 1.515625-1.824219 0-3.402344-.414062-4.734375-1.234375-1.324219-.832031-2.339844-2-3.046875-3.5-.699219-1.5-1.046875-3.234375-1.046875-5.203125 0-2.21875.359375-4.144531 1.078125-5.78125.71875-1.644531 1.726562-2.90625 3.03125-3.78125 1.300781-.882812 2.820312-1.328125 4.5625-1.328125 2.300781 0 4.070312.699219 5.3125 2.09375 1.238281 1.386719 1.859375 3.5 1.859375 6.34375h-12c-.085937.71875-.125 1.539063-.125 2.453125 0 1.6875.273437 3.164062.828125 4.421875.550781 1.25 1.28125 2.214844 2.1875 2.890625.90625.679688 1.859375 1.015625 2.859375 1.015625 1.226563 0 2.316406-.289063 3.265625-.875.945312-.59375 1.738281-1.578125 2.375-2.953125Zm-7.484375-14.96875c-1.199219 0-2.234375.589844-3.109375 1.765625-.867187 1.179688-1.402344 2.917969-1.609375 5.21875h8.375c.039062-1.988281-.25-3.648438-.875-4.984375-.625-1.332031-1.554688-2-2.78125-2ZM266.168174 235.882281c1.71875 0 3.203125.40625 4.453125 1.21875 1.207031.804687 1.8125 1.789063 1.8125 2.953125 0 .667969-.195312 1.195312-.578125 1.578125-.386719.386719-.875.578125-1.46875.578125-.585937 0-1.085937-.171875-1.5-.515625-.40625-.34375-.609375-.8125-.609375-1.40625 0-.53125.148438-.984375.453125-1.359375.3125-.375.695313-.625 1.15625-.75-.25-.457031-.703125-.835938-1.359375-1.140625-.648438-.3125-1.34375-.46875-2.09375-.46875-.9375 0-1.820312.304687-2.640625.90625-.824219.59375-1.507813 1.589844-2.046875 2.984375-.53125 1.398438-.796875 3.234375-.796875 5.515625 0 3.167969.507813 5.476563 1.53125 6.921875 1.03125 1.449219 2.363281 2.171875 4 2.171875 1.09375 0 2.132813-.316406 3.125-.953125.988281-.644531 1.800781-1.644531 2.4375-3l.734375.265625c-.4375 1.460937-1.257812 2.714844-2.453125 3.765625-1.1875 1.0390625-2.726563 1.5625-4.609375 1.5625-1.59375 0-3.039062-.40625-4.328125-1.21875-1.292969-.820312-2.308594-2.003906-3.046875-3.546875-.742188-1.550781-1.109375-3.347656-1.109375-5.390625 0-2.070312.375-3.914062 1.125-5.53125.757813-1.613281 1.816406-2.875 3.171875-3.78125 1.351562-.90625 2.898438-1.359375 4.640625-1.359375ZM281.407943 236.460406h5.671875v.765625h-5.671875v14.84375c0 1.15625.207031 1.992187.625 2.5.425781.511719 1.035156.765625 1.828125.765625.789062 0 1.46875-.316406 2.03125-.953125.5625-.644531 1.035156-1.695313 1.421875-3.15625l.765625.1875c-.636719 3.53125-2.296875 5.296875-4.984375 5.296875-.875 0-1.59375-.105469-2.15625-.3125-.5625-.1992188-1.0625-.515625-1.5-.953125-.5625-.5625-.953125-1.25-1.171875-2.0625-.210938-.820313-.3125-1.925781-.3125-3.3125v-12.84375h-3.6875v-.765625h3.6875v-5.875c1.425781-.050781 2.578125-.234375 3.453125-.546875ZM293.177117 226.819781c.664063 0 1.238281.246094 1.71875.734375.488281.480469.734375 1.054688.734375 1.71875 0 .667969-.246094 1.246094-.734375 1.734375-.480469.492187-1.054687.734375-1.71875.734375-.667969 0-1.246094-.242188-1.734375-.734375-.480469-.488281-.71875-1.066406-.71875-1.734375 0-.664062.238281-1.238281.71875-1.71875.488281-.488281 1.066406-.734375 1.734375-.734375Zm2 25.796875c0 1.042969.210937 1.761719.640625 2.15625.4375.398438 1.195312.59375 2.28125.59375v.8125c-2.355469-.101562-3.90625-.15625-4.65625-.15625-.742188 0-2.289062.054688-4.640625.15625v-.8125c1.070313 0 1.828125-.195312 2.265625-.59375.4375-.394531.65625-1.113281.65625-2.15625v-12.015625c0-1.175781-.21875-2.03125-.65625-2.5625-.4375-.539063-1.195312-.8125-2.265625-.8125v-.8125c.820313.085937 1.613281.125 2.375.125 1.613281 0 2.945313-.179687 4-.546875ZM314.668444 236.538531c1.125 0 2.097656-.039063 2.921875-.125v.765625c-.523438.054688-.980469.289062-1.375.703125-.398438.40625-.773438 1.070313-1.125 1.984375l-6.296875 16.5h-.65625l-7.046875-17c-.386719-.863281-.761719-1.4375-1.125-1.71875-.355469-.28125-.726562-.421875-1.109375-.421875v-.8125c1.332031.105469 2.457031.15625 3.375.15625 1.96875 0 3.628906-.050781 4.984375-.15625v.8125c-.9375 0-1.625.074219-2.0625.21875-.4375.136719-.65625.496094-.65625 1.078125 0 .367188.140625.929688.421875 1.6875l4.71875 11.671875 4.21875-11.09375c.28125-.769531.421875-1.367187.421875-1.796875 0-.59375-.226562-1.019531-.671875-1.28125-.449219-.269531-1.167969-.445312-2.15625-.53125v-.765625c1.320313.085937 2.394531.125 3.21875.125ZM335.460809 251.569781c-.460937 1.40625-1.324219 2.617187-2.59375 3.625-1.261719 1.0078125-2.789063 1.515625-4.578125 1.515625-1.824219 0-3.402344-.414062-4.734375-1.234375-1.324219-.832031-2.339844-2-3.046875-3.5-.699219-1.5-1.046875-3.234375-1.046875-5.203125 0-2.21875.359375-4.144531 1.078125-5.78125.71875-1.644531 1.726562-2.90625 3.03125-3.78125 1.300781-.882812 2.820312-1.328125 4.5625-1.328125 2.300781 0 4.070312.699219 5.3125 2.09375 1.238281 1.386719 1.859375 3.5 1.859375 6.34375h-12c-.085937.71875-.125 1.539063-.125 2.453125 0 1.6875.273437 3.164062.828125 4.421875.550781 1.25 1.28125 2.214844 2.1875 2.890625.90625.679688 1.859375 1.015625 2.859375 1.015625 1.226563 0 2.316406-.289063 3.265625-.875.945312-.59375 1.738281-1.578125 2.375-2.953125Zm-7.484375-14.96875c-1.199219 0-2.234375.589844-3.109375 1.765625-.867187 1.179688-1.402344 2.917969-1.609375 5.21875h8.375c.039062-1.988281-.25-3.648438-.875-4.984375-.625-1.332031-1.554688-2-2.78125-2Zm0 0"/></svg>