<svg xmlns="http://www.w3.org/2000/svg" width="150" viewBox="0 0 112.5 56.25" height="75" version="1.0"><defs><clipPath id="d"><path d="M.074.605H1.97V51H.074Zm0 0"/></clipPath><clipPath id="c"><path d="M0 0h2v52H0z"/></clipPath><clipPath id="g"><path d="M4 1.398h16V17H4Zm0 0"/></clipPath><clipPath id="h"><path d="M35 25h2.04v25.246H35Zm0 0"/></clipPath><clipPath id="i"><path d="M33 25h4.04v3H33Zm0 0"/></clipPath><clipPath id="j"><path d="M33 48h4.04v2.246H33Zm0 0"/></clipPath><clipPath id="k"><path d="M23 38h12v12.246H23Zm0 0"/></clipPath><clipPath id="l"><path d="M.773 10H17v31H.773Zm0 0"/></clipPath><clipPath id="f"><path d="M0 0h38v51H0z"/></clipPath><mask id="b"><g filter="url(#a)"><path fill-opacity=".95" d="M-11.25-5.625h135v67.5h-135z"/></g></mask><mask id="e"><g filter="url(#a)"><path fill-opacity=".95" d="M-11.25-5.625h135v67.5h-135z"/></g></mask><filter x="0%" y="0%" width="100%" height="100%" id="a"><feColorMatrix values="0 0 0 0 1 0 0 0 0 1 0 0 0 0 1 0 0 0 1 0" color-interpolation-filters="sRGB"/></filter></defs><g mask="url(#b)"><g clip-path="url(#c)" transform="translate(44 2)"><g clip-path="url(#d)"><path fill="none" d="M1.031 1.398v48.715" stroke="#fff" stroke-width="1.48"/></g></g></g><g mask="url(#e)"><g clip-path="url(#f)" transform="translate(3 2)"><path fill="#fff" d="M7.184 22.496c0-1.117.433-2.168 1.226-2.957a.76.76 0 1 1 1.074 1.074c-1.007 1.004-1.007 2.754 0 3.762a.76.76 0 1 1-1.074 1.074 4.14 4.14 0 0 1-1.226-2.953m0 0"/><path fill="#fff" d="M5.73 27.379a.76.76 0 0 1 .223-.54l14.52-14.519a.76.76 0 1 1 1.074 1.075l-14.52 14.52a.76.76 0 0 1-1.297-.536m0 0"/><path fill="#fff" d="M4.95 30.871c0-.914.355-1.773 1.003-2.418a3.43 3.43 0 0 1 4.844-.004.763.763 0 0 1-1.078 1.078 1.9 1.9 0 0 0-2.692 0c-.718.72-.718 1.973 0 2.692a.76.76 0 1 1-1.074 1.074 3.4 3.4 0 0 1-1.004-2.422m9.11 2.676a.76.76 0 0 1 1.297-.535 1.91 1.91 0 0 0 2.688 0 1.904 1.904 0 0 0-.005-2.688.76.76 0 0 1 0-1.074.764.764 0 0 1 1.078 0 3.43 3.43 0 0 1 0 4.836c-.648.644-1.504 1-2.418 1a3.4 3.4 0 0 1-2.418-1 .76.76 0 0 1-.222-.54m0 0"/><path fill="#fff" d="M9.496 28.988c0-.195.078-.386.223-.535.3-.3.777-.3 1.078 0l4.558 4.559a.76.76 0 1 1-1.074 1.074L9.72 29.527a.78.78 0 0 1-.223-.539m6.171 2.95a.76.76 0 0 1 1.3-.54.74.74 0 0 0 .536.223.74.74 0 0 0 .535-.223.774.774 0 0 0 0-1.074.76.76 0 1 1 1.074-1.074c.864.86.864 2.363 0 3.223-.43.43-1 .668-1.61.668a2.27 2.27 0 0 1-1.612-.668.76.76 0 0 1-.223-.535m0 0"/><path fill="#fff" d="M11.11 27.379a.76.76 0 0 1 1.296-.54l4.559 4.56a.76.76 0 1 1-1.074 1.074l-4.559-4.559a.76.76 0 0 1-.223-.535m9.395-6.727c0-.195.074-.39.223-.535a3.04 3.04 0 0 1 4.3 0 3.044 3.044 0 0 1 0 4.297.76.76 0 1 1-1.074-1.074c.59-.594.59-1.559 0-2.149a1.523 1.523 0 0 0-2.152 0 .76.76 0 0 1-1.297-.539m0 0"/><path fill="#fff" d="M17.82 29.785a.76.76 0 0 1 .223-.535l5.91-5.91a.76.76 0 1 1 1.074 1.074l-5.91 5.91a.76.76 0 0 1-1.297-.539m-4.797-4.871a.76.76 0 0 1 .223-.539l10.164-10.16a.76.76 0 1 1 1.074 1.074L14.32 25.453a.763.763 0 0 1-1.074 0 .77.77 0 0 1-.223-.539m0 0"/><path fill="#fff" d="M15.402 17.7a.76.76 0 0 1 1.297-.54l7.254 7.254a.76.76 0 1 1-1.074 1.074l-7.254-7.254a.76.76 0 0 1-.223-.535m-1.612 1.61a.76.76 0 0 1 1.297-.535l9.401 9.402a.76.76 0 1 1-1.074 1.074l-9.402-9.402a.76.76 0 0 1-.223-.54m-1.613 1.614a.76.76 0 0 1 1.297-.54l7.793 7.794a.76.76 0 0 1 0 1.074c-.297.3-.778.3-1.075 0l-7.793-7.793a.75.75 0 0 1-.222-.535m-3.988-.848c0-.191.074-.387.222-.535l6.406-6.41a.76.76 0 1 1 1.075 1.074l-6.407 6.41a.76.76 0 0 1-1.296-.539m0 0"/><path fill="#fff" d="M5.996 17.969a.764.764 0 0 1 1.3-.54L19.118 29.25a.76.76 0 1 1-1.074 1.074L6.219 18.504a.78.78 0 0 1-.223-.535m8.598-4.301a.76.76 0 0 1 1.297-.54l4.84 4.84a.76.76 0 0 1 0 1.075.764.764 0 0 1-1.079 0l-4.836-4.84a.75.75 0 0 1-.222-.535m4.836 8.059c0-.196.078-.387.222-.536l5.274-5.273A.76.76 0 1 1 26 16.992l-5.27 5.274a.76.76 0 0 1-1.078-.004.76.76 0 0 1-.222-.535m3.758 6.992c0-.196.074-.39.222-.535a.755.755 0 0 1 1.074-.004 2.25 2.25 0 0 0 1.938.648c.414-.058.8.235.86.649a.76.76 0 0 1-.65.859 3.78 3.78 0 0 1-3.222-1.078.77.77 0 0 1-.223-.54m0 0"/><path fill="#fff" d="M23.188 28.719a.76.76 0 0 1 .222-.54c.578-.577.578-1.581 0-2.16a.76.76 0 1 1 1.074-1.074c1.153 1.153 1.153 3.16 0 4.313a.763.763 0 0 1-1.297-.54m-18.57 1.348a4.564 4.564 0 0 1 7.79-3.227 4.53 4.53 0 0 1 1.34 3.227 4.53 4.53 0 0 1-1.34 3.227 4.53 4.53 0 0 1-3.227 1.34 4.53 4.53 0 0 1-3.227-1.34 4.52 4.52 0 0 1-1.336-3.227m7.606 0c0-.812-.317-1.578-.891-2.152a3.046 3.046 0 0 0-4.305 0 3.03 3.03 0 0 0-.89 2.152 3 3 0 0 0 .89 2.153 3 3 0 0 0 2.153.89 3 3 0 0 0 2.152-.89c.574-.574.89-1.34.89-2.153m.716-9.144a1.13 1.13 0 0 1 0 1.61 1.143 1.143 0 0 1-1.61 0 1.13 1.13 0 0 1 0-1.61 1.13 1.13 0 0 1 1.61 0m0 0"/><g clip-path="url(#g)"><path fill="#fff" d="M4.336 15.8a.75.75 0 0 1 .226-.542L18.239 1.695a.76.76 0 1 1 1.07 1.078L5.629 16.34a.76.76 0 0 1-1.292-.54m0 0"/></g><path fill="#fff" d="M2.816 23.883c0 3.472 1.407 6.605 3.676 8.87a12.53 12.53 0 0 0 8.863 3.669v.008h8.739a9.875 9.875 0 0 0 9.879-9.88h2.28v22.798h-2.28a9.873 9.873 0 0 0-9.88-9.88h-8.738c-7.77 0-14.058-6.3-14.058-14.062 0-3.718 1.441-7.093 3.8-9.61l.005-.007.664-.652.136-.137a13.98 13.98 0 0 1 8.805-3.64c-6.617.335-11.89 5.816-11.89 12.523m0 0"/><g clip-path="url(#h)"><path fill="#fff" d="M35.492 49.348V26.55a.76.76 0 0 1 1.52 0v22.797a.76.76 0 1 1-1.52 0m0 0"/></g><g clip-path="url(#i)"><path fill="#fff" d="M33.215 26.55c0-.417.34-.757.758-.757h2.28a.759.759 0 0 1 0 1.52h-2.28a.76.76 0 0 1-.758-.762m0 0"/></g><g clip-path="url(#j)"><path fill="#fff" d="M33.21 49.348a.76.76 0 0 1 .763-.758h2.277a.76.76 0 1 1 .004 1.52h-2.281a.76.76 0 0 1-.762-.762m0 0"/></g><path fill="#fff" d="M23.336 36.43c0-.418.34-.762.758-.762 5.027 0 9.117-4.09 9.12-9.117a.759.759 0 0 1 1.516 0c0 5.867-4.77 10.64-10.636 10.64a.76.76 0 0 1-.758-.761m0 0"/><g clip-path="url(#k)"><path fill="#fff" d="M23.332 39.469a.76.76 0 0 1 .762-.758c5.867 0 10.636 4.77 10.636 10.637a.76.76 0 1 1-1.52 0c0-5.028-4.089-9.118-9.116-9.118a.76.76 0 0 1-.762-.761m0 0"/></g><path fill="#fff" d="M2.059 23.89c0-7.331 5.964-13.3 13.296-13.3a.762.762 0 0 1 0 1.523c-6.496 0-11.777 5.282-11.777 11.778 0 6.492 5.281 11.777 11.777 11.777a.759.759 0 0 1 0 1.52c-7.332 0-13.296-5.965-13.296-13.297m0 0"/><path fill="#fff" d="M14.594 36.426a.76.76 0 0 1 .761-.758c6.493 0 11.778-5.285 11.778-11.777 0-6.496-5.285-11.778-11.778-11.778a.76.76 0 0 1-.761-.761.76.76 0 0 1 .761-.762c7.333 0 13.297 5.969 13.297 13.3 0 7.333-5.965 13.298-13.297 13.298a.76.76 0 0 1-.761-.762m0 0"/><g clip-path="url(#l)"><path fill="#fff" d="M.535 25.41c0-8.172 6.649-14.816 14.82-14.82a.762.762 0 0 1 0 1.523c-7.332-.004-13.3 5.965-13.3 13.297s5.968 13.3 13.3 13.3a.759.759 0 0 1 0 1.52c-8.171 0-14.82-6.648-14.82-14.82m0 0"/></g><path fill="#fff" d="M14.594 39.469a.76.76 0 0 1 .761-.758h8.739c.422 0 .758.34.758.758a.757.757 0 0 1-.758.761h-8.739a.76.76 0 0 1-.761-.761m0-3.039a.76.76 0 0 1 .761-.762h8.739a.76.76 0 0 1 .758.762.754.754 0 0 1-.758.761h-8.739a.76.76 0 0 1-.761-.761m1.566-17.121a1.143 1.143 0 0 1-1.61 0 1.143 1.143 0 0 1 0-1.61 1.13 1.13 0 0 1 1.61 0c.45.442.45 1.16 0 1.61m-1.613 1.613a1.15 1.15 0 0 1-1.61 0 1.134 1.134 0 0 1 0-1.613 1.136 1.136 0 0 1 1.61 0c.45.441.45 1.164 0 1.613m0 0"/><path fill="#fff" d="M17.77 17.7a1.143 1.143 0 0 1-1.61 0 1.16 1.16 0 0 1 0-1.622 1.15 1.15 0 0 1 1.61 0c.449.45.449 1.172 0 1.621m-8.547-2.957a.76.76 0 0 1 1.297-.535l2.148 2.145a.76.76 0 0 1 0 1.074c-.297.3-.777.3-1.074 0L9.445 15.28a.76.76 0 0 1-.222-.539M7.61 16.355a.76.76 0 0 1 1.296-.539l2.149 2.149c.3.297.3.777 0 1.074a.76.76 0 0 1-1.075 0l-2.148-2.144a.77.77 0 0 1-.223-.54m-1.613 1.614a.764.764 0 0 1 1.3-.54l2.15 2.15a.76.76 0 0 1 0 1.073.764.764 0 0 1-1.079 0L6.22 18.504a.78.78 0 0 1-.223-.535m0 0"/></g></g><path d="M56.605 6.846a17 17 0 0 0-.078 1.562c0 .406.007.742.03 1h-.28q-.096-.936-.25-1.39-.141-.468-.516-.673-.362-.217-1.11-.218h-.655v6.937q0 .516.094.75a.56.56 0 0 0 .344.328q.246.082.797.094v.25q-.645-.03-1.798-.031-1.22 0-1.813.031v-.25q.546-.012.797-.094a.57.57 0 0 0 .344-.328q.094-.234.094-.75V7.127h-.656q-.75.001-1.126.218-.363.205-.515.672-.14.456-.235 1.39h-.28q.03-.388.03-1 0-.7-.078-1.562c.664.024 1.813.032 3.438.032q2.42.002 3.422-.032m3.699 2.188q1.249 0 2 .828.763.815.765 2.484-.002 1.676-.765 2.5-.751.814-2 .813-1.254 0-2.016-.813-.75-.824-.75-2.5 0-1.67.75-2.484.762-.827 2.016-.828m0 .234q-.738.002-1.172.766-.422.752-.422 2.312 0 1.58.422 2.329c.289.492.68.734 1.172.734.488 0 .875-.242 1.156-.734q.437-.748.438-2.329c0-1.039-.149-1.812-.438-2.312q-.423-.764-1.156-.766m7.497-.234q.48 0 .797.281a.9.9 0 0 1 .313.688q-.002.313-.203.547a.62.62 0 0 1-.5.218.63.63 0 0 1-.454-.172.6.6 0 0 1-.187-.468q-.002-.405.406-.657a.28.28 0 0 0-.25-.125q-.487 0-.875.375a2.6 2.6 0 0 0-.61.922 2.6 2.6 0 0 0-.218 1v2.594q0 .549.328.781c.219.149.54.219.969.219v.25l-.297-.016a99 99 0 0 0-1.578-.03q-.315-.001-1.438.046v-.25q.498 0 .704-.187.217-.2.218-.704v-3.812q-.001-.562-.218-.813-.206-.264-.704-.264v-.25q.387.033.75.031.762.002 1.266-.172v1.531q.217-.609.703-1.078.48-.482 1.078-.484m4.615-.001q1.249 0 2 .828.763.815.765 2.484-.002 1.676-.765 2.5-.751.814-2 .813-1.254 0-2.016-.813-.75-.824-.75-2.5 0-1.67.75-2.484.762-.827 2.016-.828m0 .234q-.738.002-1.172.766-.422.752-.422 2.312 0 1.58.422 2.329.434.736 1.172.734.733.002 1.156-.734.437-.748.438-2.329c0-1.039-.149-1.812-.438-2.312q-.423-.764-1.156-.766m7.794-.234q.856 0 1.297.469.235.234.328.609.094.363.094.984v3.25q-.001.504.203.704.218.187.734.187v.25a46 46 0 0 0-1.468-.047q-.345 0-1.375.047v-.25q.449 0 .625-.187.187-.2.187-.704V10.83q-.002-.685-.203-1.047-.189-.359-.781-.36c-.336 0-.633.102-.89.297a1.8 1.8 0 0 0-.61.797 2.75 2.75 0 0 0-.219 1.125v2.703q-.002.504.172.704.186.187.64.187v.25a38 38 0 0 0-1.374-.047q-.33 0-1.454.047v-.25q.498 0 .704-.187.217-.2.218-.704v-3.812q-.001-.562-.218-.813-.206-.264-.704-.264v-.25q.387.033.75.031.762.002 1.266-.172v1.438q.31-.78.844-1.125a2.3 2.3 0 0 1 1.234-.344m5.141.186h1.812v.235h-1.812v4.719q-.001.564.203.812c.132.156.328.234.578.234a.85.85 0 0 0 .656-.296q.265-.312.453-1.016l.234.062q-.299 1.688-1.577 1.688c-.28 0-.511-.04-.687-.11a1.2 1.2 0 0 1-.469-.296 1.37 1.37 0 0 1-.39-.657c-.063-.257-.094-.609-.094-1.046V9.455h-1.173V9.22h1.172V7.346q.684-.012 1.094-.171Zm5.349-.187q1.249 0 2 .828.763.815.765 2.484-.002 1.676-.765 2.5-.751.814-2 .813-1.254 0-2.016-.813-.75-.824-.75-2.5 0-1.67.75-2.484.762-.827 2.016-.828m0 .234q-.738.002-1.172.766-.422.752-.422 2.312 0 1.58.422 2.329.434.736 1.172.734.733.002 1.156-.734.437-.748.438-2.329c0-1.039-.149-1.812-.438-2.312q-.423-.764-1.156-.766m0 0" fill="#fff"/><g transform="translate(94.042 15.486)" fill="#fff"/><path d="M59.542 23.928c.364 0 .664-.007.906-.03v.25q-.672.158-.953 1.062l-2.312 7.39h-.188l-2.125-6.28-1.953 6.279h-.187l-2.594-7.669q-.253-.763-.828-.782v-.25q.5.034 1.297.032.874.002 1.312-.032v.25q-.328.019-.469.125-.126.096-.124.297 0 .188.14.594l1.782 5.452 1.485-4.734-.328-.953q-.251-.763-.72-.782v-.25q.437.034 1.188.032c.696 0 1.22-.008 1.563-.032v.25q-.469.018-.656.094c-.118.055-.172.168-.172.344q-.001.221.11.578l1.765 5.438 1.5-4.72q.187-.607.187-1-.002-.386-.25-.562-.235-.17-.781-.172v-.25q.686.034 1.406.032m2.632-.719q.311 0 .547.234a.72.72 0 0 1 .234.547c0 .211-.078.39-.234.547a.77.77 0 0 1-.547.219.78.78 0 0 1-.562-.219.76.76 0 0 1-.22-.547c0-.219.071-.398.22-.547a.77.77 0 0 1 .562-.234m.625 8.187q-.001.504.203.704.218.187.735.187v.25a46 46 0 0 0-1.485-.047q-.344 0-1.468.047v-.25q.498 0 .704-.187.217-.2.218-.704v-3.812q-.001-.562-.218-.813-.207-.264-.705-.264v-.25q.387.033.75.031.762.002 1.266-.172Zm5.651-5.312q.856 0 1.297.469.235.234.328.609.094.363.094.984v3.25q-.001.504.203.704.218.187.734.187v.25a46 46 0 0 0-1.468-.047q-.345 0-1.375.047v-.25q.449 0 .625-.187.187-.2.187-.704v-3.515q-.002-.685-.203-1.047-.189-.359-.781-.36c-.336 0-.633.102-.89.297a1.8 1.8 0 0 0-.61.797 2.75 2.75 0 0 0-.219 1.125v2.703q-.002.504.172.704.186.187.64.187v.25a38 38 0 0 0-1.374-.047q-.33 0-1.454.047v-.25q.498 0 .704-.187.217-.2.218-.704v-3.812q-.001-.562-.218-.813-.206-.264-.704-.264v-.25q.387.033.75.031.762.002 1.266-.172v1.438q.31-.78.844-1.125a2.3 2.3 0 0 1 1.234-.344m8.735 5.124q0 .563.203.828.216.251.72.25v.25q-.375-.03-.75-.031c-.513 0-.934.054-1.266.172v-1.094a1.76 1.76 0 0 1-.672.844q-.441.279-1.063.279-1.173 0-1.844-.843-.656-.84-.656-2.467 0-1.061.375-1.812.374-.75 1-1.125.64-.375 1.39-.375.47 0 .845.172.388.174.625.547v-2.377q-.001-.562-.22-.813-.203-.248-.718-.25V23.1q.389.045.766.046c.507 0 .93-.054 1.265-.171Zm-2.484 1.14c.32 0 .61-.117.86-.359q.374-.374.53-1.047v-3.64c-.218-.625-.68-.938-1.375-.938q-.75.001-1.218.781-.47.768-.453 2.25-.017 1.47.406 2.22.434.735 1.25.734m0 0" fill="#fff"/><g transform="translate(78.368 32.538)" fill="#fff"/><path d="M53.917 40.778q.732.001 1.235.218.513.204 1 .578.14.111.234.11c.164 0 .273-.242.328-.735h.281q-.063.798-.062 2.813h-.281q-.129-.796-.235-1.14-.111-.357-.375-.673a2.2 2.2 0 0 0-.937-.703 3 3 0 0 0-1.219-.25c-.531 0-.996.18-1.39.531q-.582.516-.922 1.5-.33.973-.329 2.266-.002 1.332.36 2.281.357.955.984 1.454.622.485 1.422.484c.406 0 .797-.07 1.172-.219q.575-.233.922-.703.234-.341.343-.734c.07-.258.141-.657.204-1.188h.28q0 2.097.063 2.922h-.28a2.7 2.7 0 0 0-.11-.547q-.065-.17-.188-.172a.6.6 0 0 0-.265.094q-.55.393-1.047.594-.503.201-1.203.203-1.16 0-2.032-.516-.879-.528-1.359-1.531-.485-.997-.484-2.375c0-.895.164-1.687.5-2.375q.497-1.03 1.375-1.61a3.64 3.64 0 0 1 2.015-.578m7.205 2.36q1.249 0 2 .828.763.815.765 2.484-.002 1.676-.765 2.5-.751.814-2 .813-1.254 0-2.016-.813-.75-.824-.75-2.5 0-1.67.75-2.484.762-.827 2.016-.828m0 .234c-.492 0-.883.258-1.172.766q-.422.752-.422 2.312 0 1.58.422 2.329c.289.492.68.734 1.172.734.488 0 .875-.242 1.156-.734q.437-.748.438-2.329c0-1.039-.149-1.812-.438-2.312-.281-.508-.668-.766-1.156-.766m5.637 5.079q-.001.503.203.702.201.189.719.188v.25a46 46 0 0 0-1.469-.047c-.242 0-.734.016-1.484.047v-.25q.514 0 .718-.187.219-.2.22-.704v-6.968q-.001-.562-.22-.813-.204-.248-.718-.25v-.265q.374.045.765.046c.508 0 .93-.054 1.266-.171Zm3.488 0q-.001.503.203.702.201.189.719.188v.25a46 46 0 0 0-1.469-.047c-.242 0-.734.016-1.484.047v-.25q.514 0 .718-.187.219-.2.22-.704v-6.968q-.001-.562-.22-.813-.204-.248-.718-.25v-.265q.374.045.765.046c.508 0 .93-.054 1.266-.171Zm6.848-.329a2.4 2.4 0 0 1-.828 1.157q-.608.482-1.453.484c-.586 0-1.09-.133-1.516-.39a2.7 2.7 0 0 1-.968-1.11q-.329-.717-.328-1.656-.001-1.06.343-1.844.342-.78.953-1.203.621-.422 1.454-.422 1.107.002 1.687.672.593.657.594 2.015h-3.814a8 8 0 0 0-.031.782q-.001.796.25 1.406.264.595.703.922.437.313.906.312.592 0 1.032-.281.45-.281.765-.937Zm-2.39-4.75q-.562 0-.985.563c-.281.375-.453.93-.515 1.656h2.672q.011-.95-.282-1.578-.299-.64-.89-.64m6.311-.235c.54 0 1.008.133 1.406.39.383.25.579.563.579.938q0 .314-.188.5a.6.6 0 0 1-.453.188.76.76 0 0 1-.484-.157.58.58 0 0 1-.188-.453q0-.263.14-.437a.8.8 0 0 1 .376-.235q-.128-.217-.438-.36a1.5 1.5 0 0 0-.672-.155q-.457.002-.843.297-.394.282-.641.953-.251.656-.25 1.734-.001 1.518.484 2.203.48.69 1.266.688.53 0 1-.297.468-.31.766-.953l.234.078a2.5 2.5 0 0 1-.781 1.203q-.563.499-1.453.5a2.6 2.6 0 0 1-1.391-.39q-.61-.388-.969-1.126-.344-.748-.343-1.718-.002-.984.359-1.75.356-.78 1-1.204a2.63 2.63 0 0 1 1.484-.437m4.835.187h1.812v.235h-1.812v4.719q-.001.564.203.812c.132.156.328.234.578.234a.85.85 0 0 0 .656-.296q.265-.312.453-1.016l.234.062q-.299 1.688-1.577 1.688c-.28 0-.511-.04-.687-.11a1.2 1.2 0 0 1-.469-.296 1.37 1.37 0 0 1-.39-.657c-.063-.257-.094-.609-.094-1.046v-4.094h-1.173v-.235h1.172V41.45q.684-.012 1.094-.171Zm3.755-3.062q.311 0 .547.234a.72.72 0 0 1 .234.547c0 .211-.078.39-.234.547a.77.77 0 0 1-.547.219.78.78 0 0 1-.562-.219.76.76 0 0 1-.22-.547c0-.219.071-.398.22-.547a.77.77 0 0 1 .562-.234m.625 8.187q-.001.504.203.704.218.187.735.187v.25a46 46 0 0 0-1.485-.047q-.344 0-1.468.047v-.25q.498 0 .704-.187.217-.2.218-.704v-3.812q-.001-.562-.218-.813-.207-.264-.705-.264v-.25q.387.033.75.031.762.002 1.266-.172Zm6.199-5.109q.545.002.938-.031v.234a.73.73 0 0 0-.438.234q-.188.19-.36.625l-2 5.25h-.218l-2.234-5.405c-.125-.281-.247-.46-.36-.547a.57.57 0 0 0-.36-.14v-.25q.64.047 1.079.047.937 0 1.594-.047v.25q-.457 0-.672.078-.204.063-.203.344 0 .175.14.53l1.5 3.72 1.344-3.533q.124-.374.125-.578 0-.279-.219-.406-.204-.123-.672-.172v-.234q.622.033 1.016.031m6.621 4.781a2.4 2.4 0 0 1-.828 1.157q-.608.482-1.453.484c-.586 0-1.09-.133-1.516-.39a2.7 2.7 0 0 1-.968-1.11q-.329-.717-.328-1.656-.001-1.06.343-1.844.342-.78.953-1.203.621-.422 1.454-.422 1.107.002 1.687.672.593.657.594 2.015h-3.814a8 8 0 0 0-.031.782q-.001.796.25 1.406.264.595.703.922.437.313.906.312.592 0 1.032-.281.45-.281.765-.937Zm-2.39-4.75q-.562 0-.985.563c-.281.375-.453.93-.515 1.656h2.672q.011-.95-.282-1.578-.299-.64-.89-.64m0 0" fill="#fff"/></svg>